HIERARCHY
ROOT Hips
{
	OFFSET 0.000000 0.000000 0.000000 
	CHANNELS 6 Xposition Yposition Zposition Yrotation Zrotation Xrotation 
	JOINT Lumbar
	{
		OFFSET 0.000000 0.000000 0.000000 
		CHANNELS 3 Zrotation Xrotation Yrotation
		JOINT Neck
		{
			OFFSET 0.000000 0.445665 0.000000 
			CHANNELS 3 Zrotation Xrotation Yrotation
			End Site
			{
				OFFSET 0.000000 0.227535 0.000000 
			}
		}
		JOINT RightShoulder
		{
			OFFSET 0.019635 0.377685 0.194865 
			CHANNELS 3 Zrotation Xrotation Yrotation
			JOINT RightElbow
			{
				OFFSET 0.000000 -0.243375 0.000000 
				CHANNELS 2 Zrotation Yrotation
				JOINT RightWrist
				{
					OFFSET 0.000000 -0.264825 0.000000 
					CHANNELS 2 Zrotation Xrotation
					End Site
					{
						OFFSET 0.006600 -0.176220 0.000990 
					}
				}
			}
		}
		JOINT LeftShoulder
		{
			OFFSET 0.019635 0.377685 -0.194865 
			CHANNELS 3 Zrotation Xrotation Yrotation
			JOINT LeftElbow
			{
				OFFSET 0.000000 -0.243375 0.000000 
				CHANNELS 2 Zrotation Yrotation
				JOINT LeftWrist
				{
					OFFSET 0.000000 -0.264825 0.000000 
					CHANNELS 2 Zrotation Xrotation
					End Site
					{
						OFFSET 0.006600 -0.176220 -0.000990 
					}
				}
			}
		}
	}
	JOINT RightHip
	{
		OFFSET 0.052140 -0.069960 0.075570 
		CHANNELS 3 Zrotation Xrotation Yrotation
		JOINT RightKnee
		{
			OFFSET 0.000000 -0.402270 0.000000 
			CHANNELS 1 Zrotation
			JOINT RightAnkle
			{
				OFFSET 0.000000 -0.404085 0.000000 
				CHANNELS 3 Zrotation Xrotation Yrotation
				End Site
				{
					OFFSET 0.204105 -0.089430 0.008415 
				}
			}
		}
	}
	JOINT LeftHip
	{
		OFFSET 0.052140 -0.069960 -0.075570 
		CHANNELS 3 Zrotation Xrotation Yrotation
		JOINT LeftKnee
		{
			OFFSET 0.000000 -0.402270 0.000000 
			CHANNELS 1 Zrotation
			JOINT LeftAnkle
			{
				OFFSET 0.000000 -0.404085 0.000000 
				CHANNELS 3 Zrotation Xrotation Yrotation
				End Site
				{
					OFFSET 0.204105 -0.089430 -0.008415 
				}
			}
		}
	}
}
MOTION
Frames: 20
Frame Time: 0.02
-0 0.95578 0 182.45199 0 -5.11659 8.50938 5.03141 -2.89899 -23.66031 6.38727 3.21096 21.58012 -15.6747 24.63212 10.25233 82.29579 -3.13703 -3.89659 21.88117 1.77768 -21.59953 8.2306 -82.06238 -2.83721 3.36162 -4.95771 7.06977 -5.56511 -7.69317 -10.72584 -1.89395 -8.65022 -8.38229 6.02596 17.00087 -0.63212 -6.09242 1.99309 4.85015
6e-05 0.95578 -6e-05 182.44421 0 -5.11726 8.49376 5.04219 -2.99876 -23.62003 6.3511 3.28986 21.53646 -15.67415 24.64042 10.25142 82.2145 -3.133 -3.89377 21.82824 1.78296 -21.57087 8.23021 -81.98365 -2.83701 3.35719 -4.96621 7.07118 -5.59976 -7.66923 -10.72605 -1.8835 -8.60789 -8.38277 6.02802 17.01719 -0.62675 -6.09299 1.97549 4.83999
0.00013 0.95577 -0.00012 182.43643 0 -5.11792 8.47815 5.05287 -3.09787 -23.58 6.31522 3.36817 21.49314 -15.67361 24.64865 10.25054 82.13388 -3.12901 -3.89102 21.77573 1.78815 -21.54254 8.22982 -81.90559 -2.83681 3.35283 -4.97462 7.07262 -5.63419 -7.64545 -10.72626 -1.8731 -8.56582 -8.38315 6.0301 17.03312 -0.62157 -6.09354 1.95828 4.83022
0.00019 0.95576 -0.00018 182.4287 0 -5.1185 8.46248 5.06324 -3.19513 -23.54044 6.28019 3.44474 21.4506 -15.67316 24.6566 10.24977 82.05504 -3.12498 -3.88856 21.72423 1.79302 -21.51489 8.22943 -81.82923 -2.83662 3.34866 -4.98281 7.07404 -5.66844 -7.62204 -10.72645 -1.86284 -8.5242 -8.38292 6.0323 17.0469 -0.61755 -6.0939 1.94273 4.82251
0.00026 0.95576 -0.00023 182.42081 0 -5.11945 8.4472 5.07526 -3.30198 -23.49821 6.24068 3.53037 21.40377 -15.6723 24.66597 10.24842 81.96661 -3.12099 -3.88462 21.66719 1.79956 -21.48321 8.22905 -81.74361 -2.83638 3.3434 -4.99221 7.07543 -5.70405 -7.5966 -10.72675 -1.85188 -8.47995 -8.38565 6.03389 17.07117 -0.60789 -6.09516 1.91876 4.80457
0.00032 0.95575 -0.0003 182.41319 0 -5.11964 8.43109 5.08374 -3.38857 -23.4618 6.21067 3.59686 21.36618 -15.67227 24.67236 10.24829 81.89866 -3.11701 -3.88379 21.62206 1.80256 -21.46035 8.22865 -81.67782 -2.83624 3.3405 -4.999 7.07694 -5.73648 -7.57556 -10.72682 -1.84238 -8.44151 -8.38229 6.03678 17.07382 -0.60985 -6.0946 1.91237 4.80782
0.0004 0.95575 -0.0004 182.40682 0 -5.11745 8.41238 5.08267 -3.41847 -23.43989 6.20729 3.60958 21.35305 -15.67487 24.6701 10.25173 81.88652 -3.11201 -3.89194 21.60851 1.79563 -21.4599 8.22809 -81.66545 -2.83661 3.34398 -4.9989 7.07835 -5.76311 -7.56587 -10.72611 -1.83696 -8.41687 -8.35979 6.04351 17.00962 -0.64794 -6.08793 1.95823 4.87583
0.00048 0.95575 -0.00051 182.40059 0 -5.11454 8.39288 5.07797 -3.42805 -23.42415 6.21342 3.60316 21.34945 -15.67822 24.66489 10.25638 81.8951 -3.10716 -3.90316 21.60722 1.78518 -21.46864 8.22754 -81.67324 -2.83706 3.34986 -4.99613 7.07997 -5.78605 -7.56075 -10.72522 -1.83301 -8.39843 -8.33151 6.05153 16.92476 -0.6971 -6.0796 2.02126 4.96422
0.00056 0.95575 -0.00062 182.39397 0 -5.11215 8.37392 5.07477 -3.44747 -23.40656 6.215 3.60612 21.34217 -15.68102 24.66131 10.26035 81.89475 -3.10296 -3.91272 21.60111 1.77639 -21.47454 8.22706 -81.67273 -2.83734 3.35475 -4.99436 7.08178 -5.80875 -7.55408 -10.72452 -1.82836 -8.37864 -8.30735 6.05882 16.85402 -0.73856 -6.07274 2.07404 5.03918
0.00065 0.95574 -0.00072 182.38882 0 -5.10897 8.35418 5.07222 -3.46446 -23.38485 6.21765 3.60624 21.33209 -15.68481 24.65654 10.26485 81.89264 -3.09588 -3.92338 21.59175 1.76722 -21.47508 8.22625 -81.66889 -2.83813 3.35928 -4.99344 7.0824 -5.83943 -7.54527 -10.72331 -1.82381 -8.35288 -8.27695 6.06671 16.76362 -0.7911 -6.0629 2.13699 5.1314
0.00072 0.95574 -0.00083 182.38053 0 -5.10725 8.33592 5.06747 -3.48151 -23.37329 6.22017 3.6077 21.33019 -15.68661 24.65349 10.26853 81.89877 -3.09466 -3.93248 21.59215 1.75818 -21.48863 8.22614 -81.67642 -2.83791 3.36507 -4.99017 7.08551 -5.85277 -7.54188 -10.72316 -1.81942 -8.34078 -8.25808 6.07366 16.7089 -0.82344 -6.05882 2.18301 5.19295
0.00073 0.95575 -0.00099 182.36455 0 -5.10967 8.32138 5.05743 -3.50528 -23.38726 6.22137 3.61774 21.34765 -15.68382 24.65645 10.26975 81.92547 -3.11106 -3.93657 21.61576 1.74868 -21.53889 8.22815 -81.71337 -2.83459 3.37442 -4.9806 7.09571 -5.81776 -7.5533 -10.72572 -1.81489 -8.36696 -8.27322 6.0776 16.76069 -0.79528 -6.07167 2.17659 5.16121
0.00073 0.95575 -0.00115 182.34528 0 -5.1136 8.30842 5.04531 -3.52951 -23.41138 6.22194 3.62978 21.37314 -15.67894 24.66113 10.2701 81.95922 -3.13309 -3.93899 21.64889 1.73966 -21.60159 8.2309 -81.76055 -2.83028 3.38491 -4.96884 7.10837 -5.76571 -7.56983 -10.72944 -1.8105 -8.40628 -8.29998 6.08056 16.84845 -0.74684 -6.09028 2.15284 5.09864
0.00073 0.95576 -0.00131 182.32678 0 -5.11689 8.29514 5.03428 -3.55251 -23.43155 6.22177 3.64075 21.39559 -15.67418 24.6647 10.27078 81.98785 -3.15158 -3.94211 21.67812 1.7316 -21.65627 8.23311 -81.80104 -2.82658 3.39436 -4.95841 7.11973 -5.72229 -7.58335 -10.73275 -1.80619 -8.43821 -8.32101 6.08399 16.91796 -0.70896 -6.10579 2.13802 5.05247
0.00074 0.95577 -0.00148 182.31111 0 -5.11997 8.28029 5.02266 -3.57912 -23.44931 6.22588 3.65164 21.41597 -15.67248 24.66963 10.27173 82.02529 -3.17423 -3.94553 21.70599 1.71875 -21.72025 8.23593 -81.85064 -2.82218 3.40582 -4.94652 7.13186 -5.67483 -7.59985 -10.73542 -1.80138 -8.47631 -8.34395 6.08731 16.99522 -0.66562 -6.12314 2.11934 4.99669
0.00073 0.95577 -0.00163 182.28905 0 -5.12384 8.26891 5.01162 -3.59855 -23.47423 6.22126 3.66356 21.44225 -15.66449 24.67208 10.27198 82.04578 -3.18956 -3.94797 21.7388 1.71566 -21.76895 8.23798 -81.88368 -2.81903 3.4137 -4.93711 7.14298 -5.632 -7.6114 -10.73989 -1.79757 -8.50464 -8.36548 6.09067 17.0646 -0.62893 -6.13821 2.10434 4.95365
0.00068 0.95578 -0.00172 182.24776 0 -5.12968 8.26825 5.00439 -3.59849 -23.51775 6.18866 3.67671 21.48447 -15.63462 24.66776 10.26961 82.01781 -3.18308 -3.94714 21.78266 1.74258 -21.76176 8.23524 -81.86631 -2.81948 3.40832 -4.93585 7.15055 -5.60453 -7.60708 -10.74759 -1.79674 -8.50254 -8.38234 6.09373 17.10823 -0.6134 -6.14438 2.10373 4.95031
0.00062 0.95579 -0.0018 182.20067 0 -5.13624 8.27061 4.99752 -3.59125 -23.56775 6.14805 3.6912 21.53196 -15.59957 24.6607 10.26671 81.97253 -3.16907 -3.94552 21.83116 1.7787 -21.74083 8.2323 -81.83223 -2.82123 3.39991 -4.93703 7.15706 -5.58269 -7.59769 -10.75739 -1.79684 -8.49018 -8.39696 6.09698 17.14196 -0.6056 -6.14832 2.10731 4.96118
0.00056 0.9558 -0.00189 182.15771 0 -5.1424 8.27077 4.98943 -3.58705 -23.61404 6.11363 3.70583 21.57601 -15.57 24.65467 10.26463 81.93489 -3.15862 -3.94488 21.8776 1.80859 -21.73295 8.23094 -81.80711 -2.82243 3.39488 -4.93662 7.16416 -5.55924 -7.59127 -10.76713 -1.79635 -8.48259 -8.41134 6.10053 17.17706 -0.59565 -6.15402 2.1089 4.96763
0.00049 0.9558 -0.00197 182.10802 0 -5.14894 8.27506 4.98578 -3.58361 -23.66438 6.06819 3.71711 21.62493 -15.52658 24.64999 10.26009 81.89805 -3.14774 -3.94159 21.92406 1.84729 -21.69622 8.22281 -81.77657 -2.82341 3.38127 -4.93818 7.17084 -5.53092 -7.58247 -10.77293 -1.79661 -8.47491 -8.43166 6.10235 17.22628 -0.57932 -6.15662 2.11032 4.96501
